<?xml version="1.0" standalone="no"?>
<!DOCTYPE svg PUBLIC "-//W3C//DTD SVG 20010904//EN"
 "http://www.w3.org/TR/2001/REC-SVG-20010904/DTD/svg10.dtd">
<svg version="1.0" xmlns="http://www.w3.org/2000/svg"
 width="325.000000pt" height="325.000000pt" viewBox="0 0 325.000000 325.000000"
 preserveAspectRatio="xMidYMid meet">
<metadata>
Created by potrace 1.11, written by Peter Selinger 2001-2013
</metadata>
<g transform="translate(0.000000,325.000000) scale(0.100000,-0.100000)"
fill="#000000" stroke="none">
<path d="M1435 2993 c-33 -8 -98 -25 -145 -38 -47 -13 -112 -27 -145 -31 -86
-10 -250 -73 -332 -127 -139 -92 -346 -292 -437 -421 -70 -99 -129 -284 -162
-506 -20 -128 -14 -407 10 -515 26 -117 67 -234 117 -333 304 -597 1045 -905
1676 -697 547 181 937 716 957 1313 15 428 -162 812 -492 1066 -107 82 -255
147 -472 206 -92 25 -305 28 -390 6 -30 -8 -98 -19 -150 -25 -119 -14 -188
-32 -245 -66 -45 -26 -61 -43 -27 -30 33 13 187 44 270 54 45 6 173 11 285 11
189 1 208 -1 292 -25 50 -14 128 -44 175 -67 47 -23 94 -45 106 -49 43 -13
171 -106 235 -169 73 -73 138 -170 114 -170 -21 0 -19 -8 15 -65 25 -43 30
-46 30 -25 l0 25 21 -25 c37 -46 68 -128 109 -291 53 -210 67 -337 51 -465
-30 -247 -155 -477 -392 -722 -52 -53 -106 -113 -121 -132 -32 -41 -47 -33
-29 16 7 20 10 38 7 42 -7 7 -185 -81 -341 -168 -226 -127 -317 -160 -441
-160 -130 0 -370 72 -561 168 -175 89 -384 265 -510 432 -74 98 -163 272 -194
380 -33 117 -38 309 -10 436 83 391 258 680 526 875 97 69 266 152 388 190 56
17 120 39 142 48 22 10 68 28 103 41 93 34 77 40 -33 13z"/>
<path d="M1300 2710 c-20 -47 -80 -54 -80 -9 0 45 -65 27 -132 -36 -30 -29
-36 -40 -29 -58 7 -19 15 -21 48 -19 33 3 41 0 45 -15 5 -18 10 -19 73 -8 l69
11 24 67 c23 62 24 97 4 97 -5 0 -15 -14 -22 -30z"/>
<path d="M1530 2616 c-49 -33 -62 -51 -58 -82 4 -37 24 -41 31 -6 4 21 16 33
46 46 43 20 41 20 119 -36 l52 -39 -16 43 c-35 91 -105 121 -174 74z"/>
<path d="M2081 2612 c-5 -9 -7 -29 -4 -43 2 -14 -4 -46 -15 -70 -10 -24 -27
-70 -37 -102 -22 -67 -42 -82 -126 -92 -77 -9 -145 -33 -179 -62 -30 -25 -30
-26 -30 -128 0 -69 -4 -108 -12 -117 -79 -83 -78 -80 -78 -200 0 -61 -5 -128
-12 -149 -6 -22 -8 -42 -5 -46 4 -3 26 9 49 27 l42 34 -34 -50 c-18 -27 -75
-91 -127 -142 -113 -112 -121 -133 -36 -95 49 23 152 103 186 145 l26 33 -18
-57 c-24 -70 -45 -103 -85 -131 -31 -22 -47 -57 -25 -57 6 0 27 9 45 21 19 11
34 19 34 17 0 -18 -77 -193 -104 -238 -46 -76 -96 -176 -96 -195 0 -20 20 -19
36 3 13 16 13 16 14 0 0 -10 4 -18 10 -18 11 0 107 126 133 175 20 37 20 38 2
-60 -16 -92 -19 -213 -5 -235 7 -11 10 -5 11 25 l1 40 14 -32 c8 -18 18 -33
23 -33 4 0 11 31 15 69 3 38 20 121 36 183 64 240 73 293 67 428 -5 108 -12
170 -33 278 -5 27 -27 24 -32 -4 -2 -10 -9 -23 -14 -29 -7 -7 -8 -2 -3 15 5
14 9 68 10 120 1 79 5 101 24 132 19 31 22 46 16 86 -10 71 19 101 130 137 74
24 85 31 85 51 0 21 5 23 53 26 l52 3 6 60 c7 79 46 193 69 205 24 13 37 69
19 81 -25 16 -88 10 -98 -9z m-345 -1358 c-4 -20 -10 -34 -13 -30 -3 3 -2 21
1 42 4 20 10 34 13 30 3 -3 2 -21 -1 -42z"/>
<path d="M1539 2537 c-14 -12 -38 -44 -53 -72 -39 -69 -45 -75 -77 -75 -19 0
-29 -5 -29 -15 0 -11 11 -15 40 -15 22 0 40 -5 40 -11 0 -23 -21 -48 -35 -43
-9 4 -15 0 -15 -10 0 -10 9 -16 24 -16 24 0 36 -16 36 -50 0 -11 12 -31 27
-45 28 -25 63 -34 63 -15 0 6 -6 10 -13 10 -28 0 -40 44 -27 99 7 28 9 63 6
76 -8 31 -3 31 24 3 11 -12 20 -34 20 -50 0 -15 8 -37 17 -48 18 -21 53 -27
53 -10 0 6 -6 10 -14 10 -16 0 -26 21 -26 53 0 23 46 77 67 77 15 0 18 -36 3
-45 -15 -9 -12 -25 5 -25 15 0 45 49 45 74 0 9 -9 21 -20 28 -12 8 -20 24 -20
40 0 16 -11 37 -29 54 -17 15 -27 32 -24 37 3 5 -3 7 -13 5 -23 -4 -32 -48
-10 -48 28 0 55 -39 47 -68 -7 -25 -11 -26 -66 -25 -50 1 -61 4 -68 22 -10 21
13 71 32 71 15 0 23 -33 10 -41 -17 -10 -1 -29 26 -29 36 0 44 51 9 64 -8 3
-14 17 -14 31 0 31 -8 31 -41 2z"/>
<path d="M2200 2554 c0 -3 22 -40 49 -82 62 -96 77 -132 59 -144 -10 -6 -10
-10 2 -18 24 -16 70 -12 70 5 0 18 -27 73 -44 91 -6 6 -18 22 -26 34 -49 74
-87 120 -97 120 -7 0 -13 -2 -13 -6z"/>
<path d="M2283 2283 c-21 -8 -14 -26 18 -52 22 -17 37 -21 57 -16 15 3 39 9
55 12 31 6 37 23 7 23 -11 0 -20 7 -20 15 0 11 -11 15 -39 15 -22 0 -45 2 -53
4 -7 3 -19 2 -25 -1z"/>
<path d="M2096 2255 c-13 -13 -36 -27 -50 -31 -27 -6 -33 -18 -16 -29 19 -12
110 50 110 75 0 17 -18 11 -44 -15z"/>
<path d="M1330 2242 c-16 -16 -33 -46 -38 -68 -6 -21 -20 -82 -32 -134 -28
-117 -97 -337 -109 -345 -5 -3 -7 4 -4 15 7 26 -23 38 -44 17 -13 -13 -14 -19
-4 -31 8 -9 13 -42 13 -78 0 -43 5 -69 15 -80 20 -23 5 -43 -38 -52 -22 -4
-30 -11 -27 -23 3 -14 12 -17 39 -15 39 3 52 -8 63 -48 3 -14 38 -146 77 -293
70 -268 101 -357 126 -357 16 0 18 76 3 146 -39 188 -108 448 -120 452 -10 4
-12 -6 -7 -44 3 -27 9 -58 13 -69 4 -11 4 -17 1 -14 -4 3 -18 45 -32 94 -21
70 -23 90 -13 96 7 5 16 9 21 9 4 0 7 9 7 21 0 22 22 49 39 49 6 0 11 8 11 18
0 15 -10 17 -69 17 -38 0 -67 3 -65 7 3 5 14 8 25 8 14 0 19 7 20 28 1 15 0
31 -1 37 -3 19 24 90 47 123 31 42 53 95 53 127 0 14 11 53 25 85 14 33 29 77
33 97 l8 37 22 -48 c13 -27 26 -69 29 -95 4 -40 0 -56 -38 -126 -38 -71 -43
-89 -47 -160 -5 -88 13 -178 48 -243 l20 -37 -6 131 -6 130 48 83 48 83 -12
56 c-12 56 -12 56 23 107 19 27 35 58 35 68 0 35 -32 92 -80 143 -27 28 -52
64 -56 78 -8 34 -29 33 -64 -2z"/>
</g>
</svg>
